HIERARCHY
ROOT mug3
{
	OFFSET 0.000000 0.000000 0.000000
	CHANNELS 6 Xposition Yposition Zposition Yrotation Xrotation Zrotation
	End Site
	{
		OFFSET 0.000000 0.000000 0.000000
	}
}
MOTION
Frames: 86
Frame Time: 0.008333334
1.777021 4.406655 2.623842 -102.455700 2.906514 -1.283478 
1.782378 4.362689 2.618102 -102.609200 3.201333 -0.960022 
1.787536 4.321358 2.612236 -102.757800 3.331286 -0.549988 
1.792840 4.282969 2.607534 -102.879900 3.490284 -0.125336 
1.798103 4.247128 2.603238 -103.066500 3.445634 0.264546 
1.803825 4.214509 2.599271 -103.355000 3.375666 0.615411 
1.810083 4.184166 2.596288 -103.613400 3.222781 1.078088 
1.816571 4.156310 2.593723 -103.888400 3.072214 1.366226 
1.821774 4.129514 2.590974 -104.074300 2.919034 1.558811 
1.826455 4.105127 2.588986 -104.330400 2.659493 1.921976 
1.830014 4.082014 2.586954 -104.531000 2.601813 2.056664 
1.831986 4.060567 2.585368 -104.736200 2.445094 2.339515 
1.834002 4.038800 2.583047 -104.923400 2.450847 2.426874 
1.834208 4.018798 2.581558 -105.039800 2.443568 2.563504 
1.833692 4.000309 2.579418 -105.167600 2.509686 2.656255 
1.832819 3.981544 2.577588 -105.269100 2.657397 2.558852 
1.831121 3.963362 2.574824 -105.372300 2.848447 2.606230 
1.828480 3.945338 2.571456 -105.483600 3.051397 2.620584 
1.826143 3.927818 2.568156 -105.591900 3.264323 2.678048 
1.823103 3.910674 2.563221 -105.717000 3.538313 2.541187 
1.820964 3.893243 2.558295 -105.850700 3.808248 2.706728 
1.819766 3.876778 2.553101 -105.899900 4.098125 2.660169 
1.817805 3.860768 2.546934 -106.086500 4.197151 2.860233 
1.816536 3.844787 2.540917 -106.174900 4.365122 3.038017 
1.815364 3.828916 2.534786 -106.359600 4.646196 2.873804 
1.815059 3.814115 2.528903 -106.481500 4.770750 2.780576 
1.815476 3.798599 2.522745 -106.646700 4.880832 2.720475 
1.816171 3.784127 2.516137 -106.884800 4.906537 2.621348 
1.817906 3.769333 2.509452 -106.984100 5.017702 2.483050 
1.819023 3.754928 2.502706 -107.290700 5.093501 2.436955 
1.820468 3.740616 2.494801 -107.470300 5.212576 2.325350 
1.823605 3.726756 2.487375 -107.784900 5.274519 2.270217 
1.826319 3.714214 2.479255 -107.959600 5.369367 2.236813 
1.830359 3.702748 2.470673 -108.150700 5.331062 2.346365 
1.833792 3.692125 2.462360 -108.513400 5.190809 2.541637 
1.839056 3.681659 2.454676 -108.736600 5.129928 2.427173 
1.843884 3.671843 2.446571 -108.929100 4.906403 2.331680 
1.849999 3.663001 2.439577 -109.131500 4.623464 2.494040 
1.856106 3.654613 2.431899 -109.309500 4.214200 2.536733 
1.861647 3.647223 2.424573 -109.526500 3.664332 2.662473 
1.868051 3.639500 2.418061 -109.747300 3.263487 2.599825 
1.872900 3.632177 2.412007 -109.959800 2.790168 2.624242 
1.877790 3.624046 2.406753 -110.218500 2.474312 2.494319 
1.881465 3.616499 2.400861 -110.430200 2.244213 2.218733 
1.884616 3.608850 2.395734 -110.660000 2.160308 2.157998 
1.885522 3.601901 2.391124 -110.862500 1.945221 2.030475 
1.886687 3.595560 2.386182 -111.002900 1.799679 2.017259 
1.887856 3.589016 2.380963 -111.095000 1.871658 1.836911 
1.886546 3.582798 2.376636 -111.200800 1.688756 1.956258 
1.886080 3.576316 2.371951 -111.250900 1.792467 1.892157 
1.883055 3.570158 2.367093 -111.223000 1.672249 2.061498 
1.880163 3.564585 2.362529 -111.209800 1.718410 2.219987 
1.877161 3.557189 2.358294 -111.194200 1.799221 2.232883 
1.873259 3.551089 2.354506 -111.100900 1.849450 2.277292 
1.868883 3.547847 2.348620 -111.056000 1.893234 2.629485 
1.865720 3.545372 2.344883 -110.939800 2.037715 2.946810 
1.862427 3.543774 2.338731 -110.878900 2.086523 3.284120 
1.859362 3.542661 2.334336 -110.797500 2.145261 3.569077 
1.856711 3.542172 2.329676 -110.839200 2.158973 3.819722 
1.854151 3.541661 2.326155 -110.831000 2.125815 3.939613 
1.851814 3.542098 2.323006 -110.846600 2.112199 3.947381 
1.850411 3.541869 2.320905 -110.756700 2.118364 3.861929 
1.847356 3.541531 2.317842 -110.778700 1.930326 3.856955 
1.845240 3.541925 2.315502 -110.705000 1.867792 3.773041 
1.843294 3.541686 2.312146 -110.625100 1.879090 3.688084 
1.840588 3.541251 2.308492 -110.504600 1.898883 3.853482 
1.838605 3.540416 2.304494 -110.375600 1.976653 3.975868 
1.836735 3.539559 2.301089 -110.260400 2.004135 4.160639 
1.835007 3.539195 2.298054 -110.095500 1.869180 4.291615 
1.831976 3.539217 2.295395 -109.868000 1.837062 4.323272 
1.828517 3.539466 2.293274 -109.598300 1.780347 4.438941 
1.824686 3.540004 2.291293 -109.347800 1.688318 4.389946 
1.821143 3.539635 2.289928 -108.987900 1.757036 4.357364 
1.816810 3.539527 2.288227 -108.724600 1.700046 4.391042 
1.812098 3.539303 2.287103 -108.390400 1.638722 4.483078 
1.807644 3.539963 2.285603 -108.046300 1.674050 4.397551 
1.804584 3.539971 2.284820 -107.687400 1.739315 4.381101 
1.801092 3.539885 2.284139 -107.301100 1.666712 4.369799 
1.797791 3.540158 2.283638 -106.945600 1.640843 4.331162 
1.794239 3.539804 2.282711 -106.504100 1.592667 4.384412 
1.791668 3.539549 2.283008 -106.182500 1.567206 4.424853 
1.789571 3.539371 2.282881 -105.722700 1.575301 4.313432 
1.788337 3.539230 2.282655 -105.274500 1.537106 4.323160 
1.787150 3.539155 2.282227 -104.806900 1.447365 4.288852 
1.785336 3.539849 2.281778 -104.371400 1.384578 4.481947 
1.784906 3.539998 2.281828 -103.829200 1.395837 4.476764 
